<?xml version="1.0" encoding="UTF-8" standalone="no"?>
<svg
   xmlns:dc="http://purl.org/dc/elements/1.1/"
   xmlns:cc="http://creativecommons.org/ns#"
   xmlns:rdf="http://www.w3.org/1999/02/22-rdf-syntax-ns#"
   xmlns:svg="http://www.w3.org/2000/svg"
   xmlns="http://www.w3.org/2000/svg"
   xmlns:sodipodi="http://sodipodi.sourceforge.net/DTD/sodipodi-0.dtd"
   xmlns:inkscape="http://www.inkscape.org/namespaces/inkscape"
   id="emoji"
   viewBox="0 0 72 72"
   version="1.1"
   sodipodi:docname="microphone.svg"
   inkscape:version="0.92.5 (2060ec1f9f, 2020-04-08)">
  <metadata
     id="metadata20">
    <rdf:RDF>
      <cc:Work
         rdf:about="">
        <dc:format>image/svg+xml</dc:format>
        <dc:type
           rdf:resource="http://purl.org/dc/dcmitype/StillImage" />
      </cc:Work>
    </rdf:RDF>
  </metadata>
  <defs
     id="defs18" />
  <sodipodi:namedview
     pagecolor="#ffffff"
     bordercolor="#666666"
     borderopacity="1"
     objecttolerance="10"
     gridtolerance="10"
     guidetolerance="10"
     inkscape:pageopacity="0"
     inkscape:pageshadow="2"
     inkscape:window-width="1920"
     inkscape:window-height="1057"
     id="namedview16"
     showgrid="false"
     showguides="true"
     inkscape:guide-bbox="true"
     inkscape:zoom="13.111111"
     inkscape:cx="28.919052"
     inkscape:cy="42.489962"
     inkscape:window-x="-8"
     inkscape:window-y="-8"
     inkscape:window-maximized="1"
     inkscape:current-layer="emoji" />
  <path
     style="fill:none;stroke:#000000;stroke-width:1px;stroke-linecap:butt;stroke-linejoin:miter;stroke-opacity:1"
     d="M 9.8156009,31.227504 C 10.823408,40.674376 32.576351,42.841289 34.947854,37.16001 L 40.233178,13.214259 C 37.00434,4.2842532 21.447622,1.0120169 15.532379,7.4974797 13.335602,15.407488 11.402466,23.317496 9.8156009,31.227504 Z"
     id="path829"
     inkscape:connector-curvature="0"
     sodipodi:nodetypes="ccccc" />
  <path
     style="fill:none;stroke:#000000;stroke-width:1px;stroke-linecap:butt;stroke-linejoin:miter;stroke-opacity:1"
     d="M 15.030238,9.5818327 27.93671,9.439027 l 5.716779,2.912321"
     id="path903"
     inkscape:connector-curvature="0" />
  <path
     style="fill:none;stroke:#000000;stroke-width:1px;stroke-linecap:butt;stroke-linejoin:miter;stroke-opacity:1"
     d="m 14.0666,13.581833 12.906472,-0.142805 5.716779,2.91232"
     id="path903-3"
     inkscape:connector-curvature="0" />
  <path
     style="fill:none;stroke:#000000;stroke-width:1px;stroke-linecap:butt;stroke-linejoin:miter;stroke-opacity:1"
     d="m 13.102962,17.581833 12.906472,-0.142805 5.716779,2.91232"
     id="path903-3-7"
     inkscape:connector-curvature="0" />
  <path
     style="fill:none;stroke:#000000;stroke-width:1px;stroke-linecap:butt;stroke-linejoin:miter;stroke-opacity:1"
     d="m 12.139323,21.581833 12.906472,-0.142805 5.716779,2.91232"
     id="path903-3-7-1"
     inkscape:connector-curvature="0" />
  <path
     style="fill:none;stroke:#000000;stroke-width:1px;stroke-linecap:butt;stroke-linejoin:miter;stroke-opacity:1"
     d="m 11.175685,25.581833 12.906472,-0.142805 5.716779,2.91232"
     id="path903-3-7-1-6"
     inkscape:connector-curvature="0" />
  <path
     style="fill:none;stroke:#000000;stroke-width:1px;stroke-linecap:butt;stroke-linejoin:miter;stroke-opacity:1"
     d="m 11.595353,30.472458 11.50394,0.05771 10.176673,5.065823 c -3.659351,4.510175 -17.641498,3.422571 -21.680613,-5.123533 z"
     id="path989"
     inkscape:connector-curvature="0"
     sodipodi:nodetypes="cccc" />
  <path
     style="fill:none;stroke:#000000;stroke-width:1px;stroke-linecap:butt;stroke-linejoin:miter;stroke-opacity:1"
     d="m 16.503153,38.88583 c -0.128391,3.309097 -2.378137,7.67887 1.13257,9.168418 l 8.790895,0.107864 c 0.399827,-2.353236 0.889997,-4.61613 0.903517,-7.355673 z"
     id="path991"
     inkscape:connector-curvature="0"
     sodipodi:nodetypes="ccccc" />
  <path
     style="fill:none;fill-opacity:1;stroke:#000000;stroke-width:0.94254136;stroke-linecap:square;stroke-linejoin:miter;stroke-miterlimit:4;stroke-dasharray:none;stroke-opacity:1"
     d="m 17.304975,49.600329 8.201171,0.05393 V 62.11605 l -2.918874,0.03327 c -1.855057,-0.869596 -3.811933,-1.637374 -5.282297,-2.891664 -0.14344,-3.075669 -0.04993,-6.388285 0,-9.657327 z"
     id="rect993"
     inkscape:connector-curvature="0"
     sodipodi:nodetypes="cccccc" />
  <path
     style="fill:none;fill-opacity:1;stroke:#000000;stroke-width:1;stroke-linecap:square;stroke-linejoin:miter;stroke-miterlimit:4;stroke-dasharray:none;stroke-opacity:1"
     d="m 26.492256,44.576897 c 0,1.566317 -0.784749,2.836067 -1.752786,2.836067 -0.968037,0 -1.752786,-1.26975 -1.752786,-2.836067 0,-1.566317 0.708478,-2.836068 1.752786,-2.836068 0.968037,0 1.752786,1.269751 1.752786,2.836068 z"
     id="path996"
     inkscape:connector-curvature="0"
     sodipodi:nodetypes="sssss" />
</svg>
