<?xml version="1.0" encoding="UTF-8" standalone="no"?>
<svg
   xmlns:dc="http://purl.org/dc/elements/1.1/"
   xmlns:cc="http://creativecommons.org/ns#"
   xmlns:rdf="http://www.w3.org/1999/02/22-rdf-syntax-ns#"
   xmlns:svg="http://www.w3.org/2000/svg"
   xmlns="http://www.w3.org/2000/svg"
   xmlns:sodipodi="http://sodipodi.sourceforge.net/DTD/sodipodi-0.dtd"
   xmlns:inkscape="http://www.inkscape.org/namespaces/inkscape"
   id="emoji"
   viewBox="0 0 72 72"
   version="1.1"
   sodipodi:docname="mouse.svg"
   inkscape:version="0.92.5 (2060ec1f9f, 2020-04-08)">
  <metadata
     id="metadata20">
    <rdf:RDF>
      <cc:Work
         rdf:about="">
        <dc:format>image/svg+xml</dc:format>
        <dc:type
           rdf:resource="http://purl.org/dc/dcmitype/StillImage" />
      </cc:Work>
    </rdf:RDF>
  </metadata>
  <defs
     id="defs18" />
  <sodipodi:namedview
     pagecolor="#ffffff"
     bordercolor="#666666"
     borderopacity="1"
     objecttolerance="10"
     gridtolerance="10"
     guidetolerance="10"
     inkscape:pageopacity="0"
     inkscape:pageshadow="2"
     inkscape:window-width="1920"
     inkscape:window-height="1057"
     id="namedview16"
     showgrid="false"
     showguides="true"
     inkscape:guide-bbox="true"
     inkscape:zoom="26.222222"
     inkscape:cx="37.597788"
     inkscape:cy="41.245949"
     inkscape:window-x="-8"
     inkscape:window-y="-8"
     inkscape:window-maximized="1"
     inkscape:current-layer="emoji" />
  <path
     style="fill:#ffffff;fill-opacity:1;stroke:#000000;stroke-width:1;stroke-linecap:square;stroke-linejoin:miter;stroke-miterlimit:4;stroke-dasharray:none;stroke-opacity:1"
     d="m 35.217513,15.58726 c 8.336034,0 15.046992,4.961733 15.046992,6.957212 l 0,14.238014 c 0,8.336034 -6.710958,15.046992 -15.046992,15.046992 -8.336034,0 -15.046992,-6.710958 -15.046992,-15.046992 l 0,-14.291946 c 0,-1.864209 6.710958,-6.90328 15.046992,-6.90328 z"
     id="rect828"
     inkscape:connector-curvature="0"
     sodipodi:nodetypes="ssssscs" />
  <path
     style="fill:none;stroke:#000000;stroke-width:1px;stroke-linecap:butt;stroke-linejoin:miter;stroke-opacity:1"
     d="m -6.1779662,-1.8305091 c 0,0 11.822034,19.6016951 22.8813562,10.2966103 11.059322,-9.30508483 18.514123,7.1211588 18.514123,7.1211588"
     id="path837"
     inkscape:connector-curvature="0" />
  <path
     style="fill:#ffffff;fill-opacity:1;stroke:#000000;stroke-width:1;stroke-linecap:square;stroke-linejoin:miter;stroke-miterlimit:4;stroke-dasharray:none;stroke-opacity:1"
     d="m 35.217513,15.58726 v 5.234773 c 1.336119,0.422273 1.71815,2.071628 1.735877,7.627119 H 50.264505 V 22.49054 c 0,-1.864209 -6.710958,-6.90328 -15.046992,-6.90328 z"
     id="rect828-1-4"
     inkscape:connector-curvature="0"
     sodipodi:nodetypes="cccccc" />
  <path
     style="fill:#ffffff;fill-opacity:1;stroke:#000000;stroke-width:1;stroke-linecap:square;stroke-linejoin:miter;stroke-miterlimit:4;stroke-dasharray:none;stroke-opacity:1"
     d="m 35.199153,20.93644 c 1.035229,0 1.868644,0.833415 1.868644,1.868644 v 6.406779 c 0,1.035229 -0.833415,1.868644 -1.868644,1.868644 -1.035229,0 -1.868644,-0.833415 -1.868644,-1.868644 v -6.406779 c 0,-1.035229 0.833415,-1.868644 1.868644,-1.868644 z"
     id="rect875" />
  <path
     style="fill:#ffffff;fill-opacity:1;stroke:#000000;stroke-width:1;stroke-linecap:square;stroke-linejoin:miter;stroke-miterlimit:4;stroke-dasharray:none;stroke-opacity:1"
     d="m 35.217513,15.58726 v 5.234773 c -2.518322,0.765493 -1.832557,1.804679 -1.888419,7.627119 H 20.170521 V 22.49054 c 0,-1.864209 6.710958,-6.90328 15.046992,-6.90328 z"
     id="rect828-1-4-5"
     inkscape:connector-curvature="0"
     sodipodi:nodetypes="cccccc" />
</svg>
