<?xml version="1.0" encoding="UTF-8" standalone="no"?>
<!-- Generator: Adobe Illustrator 19.1.0, SVG Export Plug-In . SVG Version: 6.00 Build 0)  -->

<svg
   xmlns:dc="http://purl.org/dc/elements/1.1/"
   xmlns:cc="http://creativecommons.org/ns#"
   xmlns:rdf="http://www.w3.org/1999/02/22-rdf-syntax-ns#"
   xmlns:svg="http://www.w3.org/2000/svg"
   xmlns="http://www.w3.org/2000/svg"
   xmlns:sodipodi="http://sodipodi.sourceforge.net/DTD/sodipodi-0.dtd"
   xmlns:inkscape="http://www.inkscape.org/namespaces/inkscape"
   version="1.1"
   id="Layer_1"
   x="0px"
   y="0px"
   viewBox="0 0 480 480"
   style="enable-background:new 0 0 480 480;"
   xml:space="preserve"
   sodipodi:docname="thought.svg"
   inkscape:version="0.92.5 (2060ec1f9f, 2020-04-08)"><metadata
   id="metadata17"><rdf:RDF><cc:Work
       rdf:about=""><dc:format>image/svg+xml</dc:format><dc:type
         rdf:resource="http://purl.org/dc/dcmitype/StillImage" /></cc:Work></rdf:RDF></metadata><defs
   id="defs15" /><sodipodi:namedview
   pagecolor="#ffffff"
   bordercolor="#666666"
   borderopacity="1"
   objecttolerance="10"
   gridtolerance="10"
   guidetolerance="10"
   inkscape:pageopacity="0"
   inkscape:pageshadow="2"
   inkscape:window-width="1442"
   inkscape:window-height="786"
   id="namedview13"
   showgrid="false"
   inkscape:zoom="0.49166667"
   inkscape:cx="240"
   inkscape:cy="240"
   inkscape:window-x="0"
   inkscape:window-y="0"
   inkscape:window-maximized="0"
   inkscape:current-layer="Layer_1" />
<style
   type="text/css"
   id="style2">
	.st0{fill:#FFFFFF;stroke:#000000;stroke-miterlimit:10;}
	.st1{fill:none;stroke:#000000;stroke-miterlimit:10;}
</style>
<ellipse
   class="st1"
   cx="-261.44492"
   cy="268"
   id="circle4"
   transform="scale(-1,1)"
   style="fill:none;stroke:#000000;stroke-width:1.40124488;stroke-miterlimit:10"
   rx="44.772259"
   ry="22.399378" />
<ellipse
   class="st1"
   cx="-306.66525"
   cy="313.20001"
   id="circle6"
   transform="scale(-1,1)"
   style="fill:none;stroke:#000000;stroke-width:1.28992867;stroke-miterlimit:10"
   rx="22.207579"
   ry="13.055036" />
<circle
   class="st1"
   cx="-346.91782"
   cy="334.20001"
   r="7"
   id="circle8"
   transform="scale(-1,1)"
   style="fill:none;stroke:#000000;stroke-miterlimit:10" />
<path
   class="st1"
   d="m -15.466238,-54.446886 c -5.089837,-1.537594 -10.85832,-2.921428 -16.457141,-2.921428 -28.503089,0 -51.577027,20.91127 -51.577027,46.742841 0,2.9214269 0.339322,5.6890952 0.848307,8.4567635 v 0 c -18.323411,6.9191702 -35.628861,24.9090135 -34.780561,43.9751725 0.67865,13.992101 2.03594,28.906757 19.171725,42.591338 v 0 c -14.421205,10.455638 -14.760525,45.512769 -7.974075,59.966139 6.956107,14.91466 20.020024,30.13684 56.666862,41.82255 13.91222,29.82931 51.0680341,54.89208 88.902494,54.89208 16.287484,0 32.065973,-3.84398 45.29956,-10.60939 v 0 C 98.376456,239.0797 114.66394,244 132.64803,244 c 32.06598,0 60.73873,-16.29849 75.3296,-39.97743 v 0 c 38.17378,0 76.85654,-23.52518 83.98232,-56.27592 v 0 c 32.57495,-8.76428 56.15787,-35.97969 56.15787,-68.422908 0,-14.914656 -4.92018,-28.752996 -13.5729,-40.284947 v 0 c 4.58086,-8.456764 7.12578,-18.143602 7.12578,-28.13796 0,-33.673297 -29.35141,-61.503738 -65.82858,-63.963887 v 0 c -12.38526,-22.448865 -38.00411,-37.978559 -67.69483,-37.978559 -8.14374,0 -15.77849,1.076316 -23.07393,3.228947 v 0 c -12.89426,-12.762026 -31.72665,-20.757516 -52.42533,-20.757516 -21.71664,0 -41.058015,8.764287 -54.12194,22.756387 v 0 c -10.179668,-7.226689 -23.073927,-11.68571 -36.816487,-11.68571 -28.672752,0.307519 -51.5770196,18.451121 -57.175841,43.052617 z"
   id="path10"
   inkscape:connector-curvature="0"
   style="fill:none;stroke:#000000;stroke-width:1.61514723;stroke-miterlimit:10" />
</svg>