<?xml version="1.0" encoding="UTF-8" standalone="no"?>
<!-- Generator: Adobe Illustrator 19.1.0, SVG Export Plug-In . SVG Version: 6.00 Build 0)  -->

<svg
   xmlns:dc="http://purl.org/dc/elements/1.1/"
   xmlns:cc="http://creativecommons.org/ns#"
   xmlns:rdf="http://www.w3.org/1999/02/22-rdf-syntax-ns#"
   xmlns:svg="http://www.w3.org/2000/svg"
   xmlns="http://www.w3.org/2000/svg"
   xmlns:sodipodi="http://sodipodi.sourceforge.net/DTD/sodipodi-0.dtd"
   xmlns:inkscape="http://www.inkscape.org/namespaces/inkscape"
   version="1.1"
   id="Layer_1"
   x="0px"
   y="0px"
   viewBox="0 0 480 480"
   style="enable-background:new 0 0 480 480;"
   xml:space="preserve"
   sodipodi:docname="thought_long.svg"
   inkscape:version="0.92.5 (2060ec1f9f, 2020-04-08)"><metadata
   id="metadata17"><rdf:RDF><cc:Work
       rdf:about=""><dc:format>image/svg+xml</dc:format><dc:type
         rdf:resource="http://purl.org/dc/dcmitype/StillImage" /></cc:Work></rdf:RDF></metadata><defs
   id="defs15" /><sodipodi:namedview
   pagecolor="#ffffff"
   bordercolor="#666666"
   borderopacity="1"
   objecttolerance="10"
   gridtolerance="10"
   guidetolerance="10"
   inkscape:pageopacity="0"
   inkscape:pageshadow="2"
   inkscape:window-width="1920"
   inkscape:window-height="1057"
   id="namedview13"
   showgrid="false"
   inkscape:zoom="0.49166667"
   inkscape:cx="-90.508473"
   inkscape:cy="240"
   inkscape:window-x="-8"
   inkscape:window-y="-8"
   inkscape:window-maximized="1"
   inkscape:current-layer="Layer_1" />
<style
   type="text/css"
   id="style2">
	.st0{fill:#FFFFFF;stroke:#000000;stroke-miterlimit:10;}
	.st1{fill:none;stroke:#000000;stroke-miterlimit:10;}
</style>
<ellipse
   class="st1"
   cx="156.00339"
   cy="268"
   id="circle4"
   rx="44.772263"
   ry="22.399378"
   style="fill:none;stroke:#000000;stroke-width:1.40124488;stroke-miterlimit:10" />
<ellipse
   class="st1"
   cx="118.91865"
   cy="313.20001"
   id="circle6"
   rx="20.202795"
   ry="13.08415"
   style="fill:none;stroke:#000000;stroke-width:1.23169887;stroke-miterlimit:10" />
<circle
   class="st1"
   cx="80.7"
   cy="334.2"
   r="7"
   id="circle8" />
<path
   class="st1"
   d="m 347.34427,22.703503 c 6.46954,-0.975953 13.80168,-1.854311 20.91816,-1.854311 36.22942,0 65.55799,13.272967 65.55799,29.668986 0,1.854312 -0.4313,3.611028 -1.07826,5.367744 v 0 c 23.29035,4.391791 45.28677,15.810447 44.20851,27.912271 -0.86259,8.881174 -2.58782,18.347917 -24.36859,27.033907 v 0 c 18.33037,6.63648 18.76165,28.88823 10.13561,38.06219 -8.84171,9.46675 -25.44683,19.12869 -72.02752,26.54594 -17.68339,18.93349 -64.91103,34.84153 -113.00125,34.84153 -20.70254,0 -40.75811,-2.43988 -57.57888,-6.73407 v 0 c -17.46777,5.46533 -38.17029,8.58839 -61.02933,8.58839 -40.75809,0 -77.203159,-10.34511 -95.749157,-25.3748 v 0 c -48.521543,0 -97.690028,-14.93208 -106.747372,-35.71989 v 0 c -41.405047,-5.56294 -71.380571,-22.83731 -71.380571,-43.42993 0,-9.466747 6.25389,-18.250335 17.252101,-25.569984 v 0 c -5.822581,-5.367745 -9.057351,-11.516251 -9.057351,-17.859949 0,-21.373381 37.30767,-39.03814 83.672681,-40.599665 v 0 C -7.1864109,9.3329406 25.376928,-0.52419019 63.115899,-0.52419019 c 10.351264,0 20.055565,0.68316768 29.32857,2.04950309 v 0 C 108.83396,-6.5751015 132.77125,-11.65006 159.08071,-11.65006 c 27.60335,0 52.18761,5.5629351 68.79277,14.4441127 v 0 c 12.93906,-4.5869816 29.32855,-7.4172467 46.79631,-7.4172467 36.44507,0.19519 65.55798,11.7114416 72.67448,27.326697 z"
   id="path10"
   inkscape:connector-curvature="0"
   style="fill:none;stroke:#000000;stroke-width:1.4507432;stroke-miterlimit:10" />
</svg>