<?xml version="1.0" encoding="UTF-8" standalone="no"?>
<svg
   xmlns:dc="http://purl.org/dc/elements/1.1/"
   xmlns:cc="http://creativecommons.org/ns#"
   xmlns:rdf="http://www.w3.org/1999/02/22-rdf-syntax-ns#"
   xmlns:svg="http://www.w3.org/2000/svg"
   xmlns="http://www.w3.org/2000/svg"
   xmlns:sodipodi="http://sodipodi.sourceforge.net/DTD/sodipodi-0.dtd"
   xmlns:inkscape="http://www.inkscape.org/namespaces/inkscape"
   id="emoji"
   viewBox="0 0 72 72"
   version="1.1"
   sodipodi:docname="happy.svg"
   inkscape:version="0.92.5 (2060ec1f9f, 2020-04-08)">
  <metadata
     id="metadata20">
    <rdf:RDF>
      <cc:Work
         rdf:about="">
        <dc:format>image/svg+xml</dc:format>
        <dc:type
           rdf:resource="http://purl.org/dc/dcmitype/StillImage" />
      </cc:Work>
    </rdf:RDF>
  </metadata>
  <defs
     id="defs18" />
  <sodipodi:namedview
     pagecolor="#ffffff"
     bordercolor="#666666"
     borderopacity="1"
     objecttolerance="10"
     gridtolerance="10"
     guidetolerance="10"
     inkscape:pageopacity="0"
     inkscape:pageshadow="2"
     inkscape:window-width="1920"
     inkscape:window-height="1057"
     id="namedview16"
     showgrid="false"
     showguides="true"
     inkscape:guide-bbox="true"
     inkscape:zoom="45.254834"
     inkscape:cx="33.196626"
     inkscape:cy="44.48697"
     inkscape:window-x="-8"
     inkscape:window-y="-8"
     inkscape:window-maximized="1"
     inkscape:current-layer="emoji" />
  <path
     style="fill:none;stroke:#000000;stroke-width:0.13333333;stroke-linecap:butt;stroke-linejoin:miter;stroke-miterlimit:4;stroke-dasharray:none;stroke-opacity:1"
     d="M 57.179566,40.873261 62.258859,43.7508 57.18416,53.535714 51.91254,50.668495 Z"
     id="path900"
     inkscape:connector-curvature="0"
     sodipodi:nodetypes="ccccc"
     inkscape:label="sword" />
  <path
     style="color:#000000;font-style:normal;font-variant:normal;font-weight:normal;font-stretch:normal;font-size:medium;line-height:normal;font-family:sans-serif;font-variant-ligatures:normal;font-variant-position:normal;font-variant-caps:normal;font-variant-numeric:normal;font-variant-alternates:normal;font-feature-settings:normal;text-indent:0;text-align:start;text-decoration:none;text-decoration-line:none;text-decoration-style:solid;text-decoration-color:#000000;letter-spacing:normal;word-spacing:normal;text-transform:none;writing-mode:lr-tb;direction:ltr;text-orientation:mixed;dominant-baseline:auto;baseline-shift:baseline;text-anchor:start;white-space:normal;shape-padding:0;clip-rule:nonzero;display:inline;overflow:visible;visibility:visible;opacity:1;isolation:auto;mix-blend-mode:normal;color-interpolation:sRGB;color-interpolation-filters:linearRGB;solid-color:#000000;solid-opacity:1;vector-effect:none;fill:#000000;fill-opacity:1;fill-rule:nonzero;stroke:none;stroke-width:0.69999999;stroke-linecap:square;stroke-linejoin:miter;stroke-miterlimit:4;stroke-dasharray:none;stroke-dashoffset:0;stroke-opacity:1;color-rendering:auto;image-rendering:auto;shape-rendering:auto;text-rendering:auto;enable-background:accumulate"
     d="m 62.199219,43.703125 -0.347657,0.03711 -6.451171,0.660157 3.099609,2.03125 -4.566406,1 2.980468,2.009765 -4.029296,0.191406 -0.34961,0.01563 0.0332,0.699218 0.34961,-0.01563 6.138672,-0.289062 -3.375,-2.277344 4.597656,-1.005859 -2.845703,-1.863282 4.488281,-0.460937 0.349609,-0.03516 z"
     id="path925"
     inkscape:connector-curvature="0"
     inkscape:label="handle" />
  <path
     style="fill:none;stroke:#000000;stroke-width:0.13333333;stroke-linecap:butt;stroke-linejoin:miter;stroke-miterlimit:4;stroke-dasharray:none;stroke-opacity:1"
     d="m 14.507673,37.642945 c -0.940768,1.951394 -3.254418,3.635839 -5.3392545,3.45164 l 1.7759185,4.0977 c 2.207055,0.138277 4.182121,-1.19325 5.780525,-3.185252 -0.855847,-1.337912 -1.566762,-2.820756 -2.217189,-4.364088 z"
     id="path882"
     inkscape:connector-curvature="0"
     sodipodi:nodetypes="ccccc"
     inkscape:label="dribbon" />
  <path
     style="fill:none;stroke:#000000;stroke-width:0.13333333;stroke-linecap:butt;stroke-linejoin:miter;stroke-miterlimit:4;stroke-dasharray:none;stroke-opacity:1"
     d="m 12.835785,48.051797 4.422414,3.613435 c 1.085645,-2.719134 1.972125,-4.378104 3.72261,-4.833082 -1.441361,-1.303868 -2.75818,-2.694447 -3.845989,-4.234016 -1.373076,1.448851 -2.928432,2.74558 -4.299035,5.453663 z"
     id="path884"
     inkscape:connector-curvature="0"
     sodipodi:nodetypes="ccccc"
     inkscape:label="uribbon" />
  <path
     style="fill:none;stroke:#000000;stroke-width:0.13333333;stroke-linecap:butt;stroke-linejoin:miter;stroke-miterlimit:4;stroke-dasharray:none;stroke-opacity:1"
     d="m 23.909398,48.954581 c -5.58228,5.488586 -7.891632,11.018611 -7.278866,15.4183 l 38.663732,-0.07422 c 0.60499,-4.399689 -2.215278,-9.738944 -7.093221,-15.406779 -8.061141,4.480274 -16.211009,4.59076 -24.291645,0.0627 z"
     id="path888"
     inkscape:connector-curvature="0"
     sodipodi:nodetypes="ccccc"
     inkscape:label="body" />
  <path
     style="display:inline;fill:none;fill-opacity:1;stroke:#000000;stroke-width:0.13333333;stroke-linecap:round;stroke-miterlimit:4;stroke-dasharray:none;stroke-opacity:1"
     d="M 59.05275,29.337433 C 59.052749,42.069115 48.731682,52.390182 36,52.390182 23.268318,52.390182 12.947251,42.069115 12.94725,29.337433 12.94725,16.605751 23.268318,6.2846832 36,6.2846832 c 12.68875,0 23.05275,10.3210678 23.05275,23.0527498 z"
     id="path838"
     inkscape:connector-curvature="0"
     sodipodi:nodetypes="sssss"
     inkscape:label="face" />
  <path
     style="fill:none;stroke:#000000;stroke-width:0.13333333;stroke-linecap:butt;stroke-linejoin:miter;stroke-miterlimit:4;stroke-dasharray:none;stroke-opacity:1"
     d="m 58.404899,23.934147 -44.793204,0.01563 c 0.475267,-1.765717 1.050957,-3.486868 1.962644,-5.294149 13.980422,-0.09857 28.397369,0.0054 40.85693,3.87e-4 0.794142,1.494212 1.488847,3.242541 1.97363,5.278132 z"
     id="path870"
     inkscape:connector-curvature="0"
     sodipodi:nodetypes="ccccc"
     inkscape:label="headband" />
  <path
     style="fill:none;stroke:#000000;stroke-width:0.13333333;stroke-linecap:round;stroke-linejoin:miter;stroke-miterlimit:4;stroke-dasharray:none;stroke-opacity:1"
     d="m 30.660744,36.62276 c 3.793616,4.509727 7.315666,4.256748 10.678511,0 -3.33423,1.254278 -6.82221,0.989325 -10.678511,0 z"
     id="path902"
     inkscape:connector-curvature="0"
     sodipodi:nodetypes="ccc"
     inkscape:label="mouth" />
  <path
     style="color:#000000;font-style:normal;font-variant:normal;font-weight:normal;font-stretch:normal;font-size:medium;line-height:normal;font-family:sans-serif;font-variant-ligatures:normal;font-variant-position:normal;font-variant-caps:normal;font-variant-numeric:normal;font-variant-alternates:normal;font-feature-settings:normal;text-indent:0;text-align:start;text-decoration:none;text-decoration-line:none;text-decoration-style:solid;text-decoration-color:#000000;letter-spacing:normal;word-spacing:normal;text-transform:none;writing-mode:lr-tb;direction:ltr;text-orientation:mixed;dominant-baseline:auto;baseline-shift:baseline;text-anchor:start;white-space:normal;shape-padding:0;clip-rule:nonzero;display:inline;overflow:visible;visibility:visible;opacity:1;isolation:auto;mix-blend-mode:normal;color-interpolation:sRGB;color-interpolation-filters:linearRGB;solid-color:#000000;solid-opacity:1;vector-effect:none;fill:none;fill-opacity:1;fill-rule:nonzero;stroke:#000000;stroke-width:0.13333333;stroke-linecap:round;stroke-linejoin:miter;stroke-miterlimit:4;stroke-dasharray:none;stroke-dashoffset:0;stroke-opacity:1;color-rendering:auto;image-rendering:auto;shape-rendering:auto;text-rendering:auto;enable-background:accumulate"
     d="m 22.138672,24.144473 c -2.210438,0 -4.003906,1.795422 -4.003906,4.00586 0,2.210438 1.793475,4.000297 4.003906,4.005859 9.240885,0.02325 18.481771,0.03515 27.722656,0 2.210422,-0.0084 4.003906,-1.795421 4.003906,-4.005859 0,-2.210438 -1.793468,-4.00586 -4.003906,-4.00586 -9.240885,0 -18.481771,0 -27.722656,0 z"
     id="rect880"
     inkscape:connector-curvature="0"
     sodipodi:nodetypes="sssssss"
     inkscape:label="skin" />
  <path
     style="display:inline;fill:#000000;fill-opacity:1;stroke:#000000;stroke-width:0.01072397;stroke-linecap:round;stroke-miterlimit:4;stroke-dasharray:none;stroke-opacity:1"
     d="m 25.441639,27.666001 c 0,1.218139 -0.697827,2.205637 -1.558638,2.205637 -0.860811,0 -1.558639,-0.987498 -1.558639,-2.205637 0,-1.218141 0.697828,-2.205639 1.558639,-2.205639 0.857908,0 1.558638,0.987498 1.558638,2.205639 z"
     id="path838-2"
     inkscape:connector-curvature="0"
     sodipodi:nodetypes="sssss"
     inkscape:label="leye" />
  <path
     style="display:inline;fill:#000000;fill-opacity:1;stroke:#000000;stroke-width:0.01072397;stroke-linecap:round;stroke-miterlimit:4;stroke-dasharray:none;stroke-opacity:1"
     d="m 49.675639,27.605001 c 0,1.218139 -0.697827,2.205637 -1.558638,2.205637 -0.860811,0 -1.558639,-0.987498 -1.558639,-2.205637 0,-1.218141 0.697828,-2.205639 1.558639,-2.205639 0.857908,0 1.558638,0.987498 1.558638,2.205639 z"
     id="path838-2-2"
     inkscape:connector-curvature="0"
     sodipodi:nodetypes="sssss"
     inkscape:label="reye" />
  <path
     style="display:inline;fill:#ffffff;fill-opacity:1;stroke:none;stroke-width:0.00318007;stroke-linecap:round;stroke-miterlimit:4;stroke-dasharray:none;stroke-opacity:1"
     d="m 24.592,27.114 c 0,0.315907 -0.236618,0.572 -0.5285,0.572 -0.291882,0 -0.5285,-0.256093 -0.5285,-0.572 0,-0.315907 0.236618,-0.572 0.5285,-0.572 0.290898,0 0.5285,0.256093 0.5285,0.572 z"
     id="path838-2-4"
     inkscape:connector-curvature="0"
     sodipodi:nodetypes="sssss"
     inkscape:label="lpupil" />
  <path
     style="display:inline;fill:#ffffff;fill-opacity:1;stroke:none;stroke-width:0.00318007;stroke-linecap:round;stroke-miterlimit:4;stroke-dasharray:none;stroke-opacity:1"
     d="m 48.884,27.153 c 0,0.315907 -0.236618,0.572 -0.5285,0.572 -0.291882,0 -0.5285,-0.256093 -0.5285,-0.572 0,-0.315907 0.236618,-0.572 0.5285,-0.572 0.290898,0 0.5285,0.256093 0.5285,0.572 z"
     id="path838-2-4-7"
     inkscape:connector-curvature="0"
     sodipodi:nodetypes="sssss"
     inkscape:label="rpupil" />
  <path
     style="fill:none;stroke:#000000;stroke-width:0.13333333;stroke-linecap:butt;stroke-linejoin:miter;stroke-miterlimit:4;stroke-dasharray:none;stroke-opacity:1"
     d="m 23.909398,48.954581 c -7.74,3.609017 -16.8826803,7.98789 -17.784398,15.4183 h 10.505532 c -0.612766,-4.399689 1.707816,-9.956939 7.278866,-15.4183 z"
     id="path839"
     inkscape:connector-curvature="0"
     sodipodi:nodetypes="cccc"
     inkscape:label="lhand" />
  <path
     style="display:inline;fill:none;stroke:#000000;stroke-width:0.13333333;stroke-linecap:butt;stroke-linejoin:miter;stroke-miterlimit:4;stroke-dasharray:none;stroke-opacity:1"
     d="m 48.201043,48.891882 c 7.74,3.609017 16.697239,7.97637 17.598957,15.406779 H 55.294264 c 0.52872,-4.399688 -2.215278,-9.738944 -7.093221,-15.406779 z"
     id="path839-1"
     inkscape:connector-curvature="0"
     sodipodi:nodetypes="cccc"
     inkscape:label="rhand" />
</svg>
