<?xml version="1.0" encoding="UTF-8" standalone="no"?>
<svg
   xmlns:dc="http://purl.org/dc/elements/1.1/"
   xmlns:cc="http://creativecommons.org/ns#"
   xmlns:rdf="http://www.w3.org/1999/02/22-rdf-syntax-ns#"
   xmlns:svg="http://www.w3.org/2000/svg"
   xmlns="http://www.w3.org/2000/svg"
   xmlns:sodipodi="http://sodipodi.sourceforge.net/DTD/sodipodi-0.dtd"
   xmlns:inkscape="http://www.inkscape.org/namespaces/inkscape"
   id="emoji"
   viewBox="0 0 72 72"
   version="1.1"
   sodipodi:docname="stars.svg"
   inkscape:version="0.92.5 (2060ec1f9f, 2020-04-08)">
  <metadata
     id="metadata20">
    <rdf:RDF>
      <cc:Work
         rdf:about="">
        <dc:format>image/svg+xml</dc:format>
        <dc:type
           rdf:resource="http://purl.org/dc/dcmitype/StillImage" />
      </cc:Work>
    </rdf:RDF>
  </metadata>
  <defs
     id="defs18" />
  <sodipodi:namedview
     pagecolor="#ffffff"
     bordercolor="#666666"
     borderopacity="1"
     objecttolerance="10"
     gridtolerance="10"
     guidetolerance="10"
     inkscape:pageopacity="0"
     inkscape:pageshadow="2"
     inkscape:window-width="1920"
     inkscape:window-height="1057"
     id="namedview16"
     showgrid="false"
     showguides="true"
     inkscape:guide-bbox="true"
     inkscape:zoom="16.000001"
     inkscape:cx="43.987365"
     inkscape:cy="43.148562"
     inkscape:window-x="-8"
     inkscape:window-y="-8"
     inkscape:window-maximized="1"
     inkscape:current-layer="emoji" />
  <path
     style="fill:none;stroke:#000000;stroke-width:0.13333333;stroke-linecap:butt;stroke-linejoin:miter;stroke-miterlimit:4;stroke-dasharray:none;stroke-opacity:1"
     d="M 57.179566,40.873261 62.258859,43.7508 57.18416,53.535714 51.91254,50.668495 Z"
     id="path900"
     inkscape:connector-curvature="0"
     sodipodi:nodetypes="ccccc"
     inkscape:label="sword" />
  <path
     style="color:#000000;font-style:normal;font-variant:normal;font-weight:normal;font-stretch:normal;font-size:medium;line-height:normal;font-family:sans-serif;font-variant-ligatures:normal;font-variant-position:normal;font-variant-caps:normal;font-variant-numeric:normal;font-variant-alternates:normal;font-feature-settings:normal;text-indent:0;text-align:start;text-decoration:none;text-decoration-line:none;text-decoration-style:solid;text-decoration-color:#000000;letter-spacing:normal;word-spacing:normal;text-transform:none;writing-mode:lr-tb;direction:ltr;text-orientation:mixed;dominant-baseline:auto;baseline-shift:baseline;text-anchor:start;white-space:normal;shape-padding:0;clip-rule:nonzero;display:inline;overflow:visible;visibility:visible;opacity:1;isolation:auto;mix-blend-mode:normal;color-interpolation:sRGB;color-interpolation-filters:linearRGB;solid-color:#000000;solid-opacity:1;vector-effect:none;fill:#000000;fill-opacity:1;fill-rule:nonzero;stroke:none;stroke-width:0.69999999;stroke-linecap:square;stroke-linejoin:miter;stroke-miterlimit:4;stroke-dasharray:none;stroke-dashoffset:0;stroke-opacity:1;color-rendering:auto;image-rendering:auto;shape-rendering:auto;text-rendering:auto;enable-background:accumulate"
     d="m 62.199219,43.703125 -0.347657,0.03711 -6.451171,0.660157 3.099609,2.03125 -4.566406,1 2.980468,2.009765 -4.029296,0.191406 -0.34961,0.01563 0.0332,0.699218 0.34961,-0.01563 6.138672,-0.289062 -3.375,-2.277344 4.597656,-1.005859 -2.845703,-1.863282 4.488281,-0.460937 0.349609,-0.03516 z"
     id="path925"
     inkscape:connector-curvature="0"
     inkscape:label="handle" />
  <path
     style="fill:none;stroke:#000000;stroke-width:0.13333333;stroke-linecap:butt;stroke-linejoin:miter;stroke-miterlimit:4;stroke-dasharray:none;stroke-opacity:1"
     d="m 14.507673,37.642945 c -0.940768,1.951394 -3.254418,3.635839 -5.3392545,3.45164 l 1.7759185,4.0977 c 2.207055,0.138277 4.182121,-1.19325 5.780525,-3.185252 -0.855847,-1.337912 -1.566762,-2.820756 -2.217189,-4.364088 z"
     id="path882"
     inkscape:connector-curvature="0"
     sodipodi:nodetypes="ccccc"
     inkscape:label="dribbon" />
  <path
     style="fill:none;stroke:#000000;stroke-width:0.13333333;stroke-linecap:butt;stroke-linejoin:miter;stroke-miterlimit:4;stroke-dasharray:none;stroke-opacity:1"
     d="m 12.835785,48.051797 4.422414,3.613435 c 1.085645,-2.719134 1.972125,-4.378104 3.72261,-4.833082 -1.441361,-1.303868 -2.75818,-2.694447 -3.845989,-4.234016 -1.373076,1.448851 -2.928432,2.74558 -4.299035,5.453663 z"
     id="path884"
     inkscape:connector-curvature="0"
     sodipodi:nodetypes="ccccc"
     inkscape:label="uribbon" />
  <path
     style="fill:none;stroke:#000000;stroke-width:0.13333333;stroke-linecap:butt;stroke-linejoin:miter;stroke-miterlimit:4;stroke-dasharray:none;stroke-opacity:1"
     d="m 23.909398,48.954581 c -5.58228,5.488586 -7.891632,11.018611 -7.278866,15.4183 l 38.663732,-0.07422 c 0.60499,-4.399689 -2.215278,-9.738944 -7.093221,-15.406779 -8.061141,4.480274 -16.211009,4.59076 -24.291645,0.0627 z"
     id="path888"
     inkscape:connector-curvature="0"
     sodipodi:nodetypes="ccccc"
     inkscape:label="body" />
  <circle
     style="display:inline;fill:none;fill-opacity:1;stroke:#000000;stroke-width:0.13333333;stroke-linecap:round;stroke-miterlimit:4;stroke-dasharray:none;stroke-opacity:1"
     id="path838"
     cx="36"
     cy="29.337433"
     r="23.05275"
     inkscape:label="face" />
  <path
     style="fill:none;stroke:#000000;stroke-width:0.13333333;stroke-linecap:butt;stroke-linejoin:miter;stroke-miterlimit:4;stroke-dasharray:none;stroke-opacity:1"
     d="m 56.371966,18.55658 c 0.970026,1.6596 1.617765,3.536801 2.028872,5.377567 l -44.789143,0.01563 c 0.475267,-1.765717 1.050957,-3.486868 1.962644,-5.294149 14.267405,-0.137263 28.717318,-0.08917 40.797627,-0.09905 z"
     id="path870"
     inkscape:connector-curvature="0"
     sodipodi:nodetypes="ccccc"
     inkscape:label="headband" />
  <path
     style="fill:none;stroke:#000000;stroke-width:0.13333333;stroke-linecap:round;stroke-linejoin:miter;stroke-miterlimit:4;stroke-dasharray:none;stroke-opacity:1"
     d="m 30.660744,36.62276 c 3.793616,4.509727 7.315666,4.256748 10.678511,0 -3.33423,1.254278 -6.82221,0.989325 -10.678511,0 z"
     id="path902"
     inkscape:connector-curvature="0"
     sodipodi:nodetypes="ccc"
     inkscape:label="mouth" />
  <path
     style="color:#000000;font-style:normal;font-variant:normal;font-weight:normal;font-stretch:normal;font-size:medium;line-height:normal;font-family:sans-serif;font-variant-ligatures:normal;font-variant-position:normal;font-variant-caps:normal;font-variant-numeric:normal;font-variant-alternates:normal;font-feature-settings:normal;text-indent:0;text-align:start;text-decoration:none;text-decoration-line:none;text-decoration-style:solid;text-decoration-color:#000000;letter-spacing:normal;word-spacing:normal;text-transform:none;writing-mode:lr-tb;direction:ltr;text-orientation:mixed;dominant-baseline:auto;baseline-shift:baseline;text-anchor:start;white-space:normal;shape-padding:0;clip-rule:nonzero;display:inline;overflow:visible;visibility:visible;opacity:1;isolation:auto;mix-blend-mode:normal;color-interpolation:sRGB;color-interpolation-filters:linearRGB;solid-color:#000000;solid-opacity:1;vector-effect:none;fill:none;fill-opacity:1;fill-rule:nonzero;stroke:#000000;stroke-width:0.13333333;stroke-linecap:round;stroke-linejoin:miter;stroke-miterlimit:4;stroke-dasharray:none;stroke-dashoffset:0;stroke-opacity:1;color-rendering:auto;image-rendering:auto;shape-rendering:auto;text-rendering:auto;enable-background:accumulate"
     d="m 22.138672,24.144473 c -2.210438,0 -4.003906,1.795422 -4.003906,4.00586 0,2.210438 1.793468,4.005859 4.003906,4.005859 h 27.722656 c 2.210438,0 4.003906,-1.795421 4.003906,-4.005859 0,-2.210438 -1.793468,-4.00586 -4.003906,-4.00586 z"
     id="rect880"
     inkscape:connector-curvature="0"
     sodipodi:nodetypes="sssssss"
     inkscape:label="skin" />
  <path
     style="fill:#000000;fill-opacity:1;stroke:#000000;stroke-width:0;stroke-linecap:square;stroke-linejoin:miter;stroke-miterlimit:4;stroke-dasharray:none;stroke-opacity:1"
     inkscape:transform-center-x="0.030594677"
     inkscape:transform-center-y="-0.24912354"
     d="m 27.574506,31.563519 -2.175349,-1.585067 -2.408327,1.619418 0.835269,-2.558692 -2.284371,-1.790028 2.691573,0.0037 0.996507,-2.725715 0.828216,2.560984 2.900247,0.105443 -2.179709,1.579068 z"
     id="path827-6"
     inkscape:connector-curvature="0"
     inkscape:label="leye" />
  <path
     style="fill:#000000;fill-opacity:1;stroke:#000000;stroke-width:0;stroke-linecap:square;stroke-linejoin:miter;stroke-miterlimit:4;stroke-dasharray:none;stroke-opacity:1"
     inkscape:transform-center-x="0.030594677"
     inkscape:transform-center-y="-0.24912354"
     d="m 49.134587,31.541244 -2.175349,-1.585067 -2.408327,1.619418 0.835269,-2.558692 -2.284371,-1.790028 2.691573,0.0037 0.996507,-2.725715 0.828216,2.560984 2.900247,0.105443 -2.179709,1.579068 z"
     id="path827"
     inkscape:connector-curvature="0"
     inkscape:label="reye" />
  <path
     style="fill:#ffffff;fill-opacity:1;stroke:#000000;stroke-width:0;stroke-linecap:square;stroke-linejoin:miter;stroke-miterlimit:4;stroke-dasharray:none;stroke-opacity:1"
     inkscape:transform-center-x="0.021756177"
     inkscape:transform-center-y="-0.17716604"
     d="m 26.911783,30.624031 -1.546879,-1.127133 -1.712549,1.151559 0.593955,-1.819472 -1.624405,-1.27288 1.913964,0.0026 0.708611,-1.938242 0.588941,1.821102 2.06235,0.07498 -1.54998,1.122868 z"
     id="path827-7-0"
     inkscape:connector-curvature="0"
     inkscape:label="lpupil" />
  <path
     style="fill:#ffffff;fill-opacity:1;stroke:#000000;stroke-width:0;stroke-linecap:square;stroke-linejoin:miter;stroke-miterlimit:4;stroke-dasharray:none;stroke-opacity:1"
     inkscape:transform-center-x="0.021756177"
     inkscape:transform-center-y="-0.17716604"
     d="m 48.471864,30.601756 -1.546879,-1.127133 -1.712549,1.151559 0.593955,-1.819472 -1.624405,-1.27288 1.913964,0.0026 0.708611,-1.938242 0.588941,1.821102 2.06235,0.07498 -1.54998,1.122868 z"
     id="path827-7"
     inkscape:connector-curvature="0"
     inkscape:label="rpupil" />
  <path
     style="fill:none;stroke:#000000;stroke-width:0.13333333;stroke-linecap:butt;stroke-linejoin:miter;stroke-miterlimit:4;stroke-dasharray:none;stroke-opacity:1"
     d="m 23.909398,48.954581 c -7.74,3.609017 -16.8826803,7.98789 -17.784398,15.4183 h 10.505532 c -0.612766,-4.399689 1.707816,-9.956939 7.278866,-15.4183 z"
     id="path839"
     inkscape:connector-curvature="0"
     sodipodi:nodetypes="cccc"
     inkscape:label="lhand" />
  <path
     style="display:inline;fill:none;stroke:#000000;stroke-width:0.13333333;stroke-linecap:butt;stroke-linejoin:miter;stroke-miterlimit:4;stroke-dasharray:none;stroke-opacity:1"
     d="m 48.201043,48.891882 c 7.74,3.609017 16.697239,7.97637 17.598957,15.406779 H 55.294264 c 0.52872,-4.399688 -2.215278,-9.738944 -7.093221,-15.406779 z"
     id="path839-1"
     inkscape:connector-curvature="0"
     sodipodi:nodetypes="cccc"
     inkscape:label="rhand" />
</svg>
