<?xml version="1.0" encoding="UTF-8" standalone="no"?>
<svg
   xmlns:dc="http://purl.org/dc/elements/1.1/"
   xmlns:cc="http://creativecommons.org/ns#"
   xmlns:rdf="http://www.w3.org/1999/02/22-rdf-syntax-ns#"
   xmlns:svg="http://www.w3.org/2000/svg"
   xmlns="http://www.w3.org/2000/svg"
   xmlns:sodipodi="http://sodipodi.sourceforge.net/DTD/sodipodi-0.dtd"
   xmlns:inkscape="http://www.inkscape.org/namespaces/inkscape"
   id="emoji"
   viewBox="0 0 72 72"
   version="1.1"
   sodipodi:docname="surprised.svg"
   inkscape:version="0.92.5 (2060ec1f9f, 2020-04-08)">
  <metadata
     id="metadata20">
    <rdf:RDF>
      <cc:Work
         rdf:about="">
        <dc:format>image/svg+xml</dc:format>
        <dc:type
           rdf:resource="http://purl.org/dc/dcmitype/StillImage" />
      </cc:Work>
    </rdf:RDF>
  </metadata>
  <defs
     id="defs18" />
  <sodipodi:namedview
     pagecolor="#ffffff"
     bordercolor="#666666"
     borderopacity="1"
     objecttolerance="10"
     gridtolerance="10"
     guidetolerance="10"
     inkscape:pageopacity="0"
     inkscape:pageshadow="2"
     inkscape:window-width="1920"
     inkscape:window-height="1057"
     id="namedview16"
     showgrid="false"
     showguides="true"
     inkscape:guide-bbox="true"
     inkscape:zoom="11.313709"
     inkscape:cx="27.140507"
     inkscape:cy="32.202803"
     inkscape:window-x="-8"
     inkscape:window-y="-8"
     inkscape:window-maximized="1"
     inkscape:current-layer="emoji" />
  <path
     style="fill:none;stroke:#000000;stroke-width:0.13333333;stroke-linecap:butt;stroke-linejoin:miter;stroke-miterlimit:4;stroke-dasharray:none;stroke-opacity:1"
     d="M 57.179566,42.873261 62.258859,45.7508 57.18416,55.535714 51.91254,52.668495 Z"
     id="path900"
     inkscape:connector-curvature="0"
     sodipodi:nodetypes="ccccc"
     inkscape:label="sword" />
  <path
     style="color:#000000;font-style:normal;font-variant:normal;font-weight:normal;font-stretch:normal;font-size:medium;line-height:normal;font-family:sans-serif;font-variant-ligatures:normal;font-variant-position:normal;font-variant-caps:normal;font-variant-numeric:normal;font-variant-alternates:normal;font-feature-settings:normal;text-indent:0;text-align:start;text-decoration:none;text-decoration-line:none;text-decoration-style:solid;text-decoration-color:#000000;letter-spacing:normal;word-spacing:normal;text-transform:none;writing-mode:lr-tb;direction:ltr;text-orientation:mixed;dominant-baseline:auto;baseline-shift:baseline;text-anchor:start;white-space:normal;shape-padding:0;clip-rule:nonzero;display:inline;overflow:visible;visibility:visible;opacity:1;isolation:auto;mix-blend-mode:normal;color-interpolation:sRGB;color-interpolation-filters:linearRGB;solid-color:#000000;solid-opacity:1;vector-effect:none;fill:#000000;fill-opacity:1;fill-rule:nonzero;stroke:none;stroke-width:0.69999999;stroke-linecap:square;stroke-linejoin:miter;stroke-miterlimit:4;stroke-dasharray:none;stroke-dashoffset:0;stroke-opacity:1;color-rendering:auto;image-rendering:auto;shape-rendering:auto;text-rendering:auto;enable-background:accumulate"
     d="m 62.199219,45.703125 -0.347657,0.03711 -6.451171,0.660157 3.099609,2.03125 -4.566406,1 2.980468,2.009765 -4.029296,0.191406 -0.34961,0.01563 0.0332,0.699218 0.34961,-0.01563 6.138672,-0.289062 -3.375,-2.277344 4.597656,-1.005859 -2.845703,-1.863282 4.488281,-0.460937 0.349609,-0.03516 z"
     id="path925"
     inkscape:connector-curvature="0"
     inkscape:label="handle" />
  <path
     style="fill:none;stroke:#000000;stroke-width:0.13333333;stroke-linecap:butt;stroke-linejoin:miter;stroke-miterlimit:4;stroke-dasharray:none;stroke-opacity:1"
     d="m 15.433606,39.753926 c -0.940768,1.951394 -2.766137,2.850683 -4.850974,2.666484 l 1.775919,4.0977 c 2.207055,0.138277 3.936027,-0.912 5.534431,-2.904002 -0.922138,-1.205329 -1.488541,-2.140073 -2.459376,-3.860182 z"
     id="path882"
     inkscape:connector-curvature="0"
     sodipodi:nodetypes="ccccc"
     inkscape:label="dribbon" />
  <path
     style="fill:none;stroke:#000000;stroke-width:0.13333333;stroke-linecap:butt;stroke-linejoin:miter;stroke-miterlimit:4;stroke-dasharray:none;stroke-opacity:1"
     d="m 14.249999,49.377622 4.422414,3.613435 c 1.085645,-2.719134 2.021843,-4.554881 3.772328,-5.009859 -1.584992,-1.226528 -2.600867,-2.158295 -4.126176,-3.854114 -1.373076,1.448851 -2.697963,2.542455 -4.068566,5.250538 z"
     id="path884"
     inkscape:connector-curvature="0"
     sodipodi:nodetypes="ccccc"
     inkscape:label="uribbon" />
  <path
     style="fill:none;stroke:#000000;stroke-width:0.13333333;stroke-linecap:butt;stroke-linejoin:miter;stroke-miterlimit:4;stroke-dasharray:none;stroke-opacity:1"
     d="m 23.909398,48.954581 c -5.58228,5.488586 -7.891632,11.018611 -7.278866,15.4183 l 38.663732,-0.07422 c 0.60499,-4.399689 -2.215278,-9.738944 -7.093221,-15.406779 -8.061141,4.480274 -16.211009,4.59076 -24.291645,0.0627 z"
     id="path888"
     inkscape:connector-curvature="0"
     sodipodi:nodetypes="ccccc"
     inkscape:label="body" />
  <path
     style="display:inline;fill:none;fill-opacity:1;stroke:#000000;stroke-width:0.13333333;stroke-linecap:round;stroke-miterlimit:4;stroke-dasharray:none;stroke-opacity:1"
     d="m 59.053167,29.337584 c -1e-6,12.731682 -10.321068,23.052749 -23.05275,23.052749 -12.731682,0 -23.052749,-10.321067 -23.05275,-23.052749 0,-12.731682 10.321068,-23.0527497 23.05275,-23.0527497 12.68875,0 23.05275,10.3210677 23.05275,23.0527497 z"
     id="path838"
     inkscape:connector-curvature="0"
     sodipodi:nodetypes="sssss"
     inkscape:label="face" />
  <path
     style="fill:none;stroke:#000000;stroke-width:0.13333333;stroke-linecap:butt;stroke-linejoin:miter;stroke-miterlimit:4;stroke-dasharray:none;stroke-opacity:1"
     d="m 57.80014,21.859027 c -14.672418,-0.758395 -29.141132,-0.757945 -43.577865,0.01563 0.585752,-1.765717 1.437656,-3.520014 2.581362,-5.294149 13.980423,-1.284267 25.922497,-0.923621 38.382058,3.87e-4 1.048258,1.726231 1.809255,3.087861 2.614445,5.278132 z"
     id="path870"
     inkscape:connector-curvature="0"
     sodipodi:nodetypes="ccccc"
     inkscape:label="headband" />
  <path
     style="fill:none;stroke:#000000;stroke-width:0.13333333;stroke-linecap:round;stroke-linejoin:miter;stroke-miterlimit:4;stroke-dasharray:none;stroke-opacity:1"
     d="m 30.660744,34.62276 c 3.702081,10.64259 7.24089,9.266729 10.678511,0 -3.054029,-3.929432 -6.439152,-6.097257 -10.678511,0 z"
     id="path902"
     inkscape:connector-curvature="0"
     sodipodi:nodetypes="ccc"
     inkscape:label="mouth" />
  <path
     style="color:#000000;font-style:normal;font-variant:normal;font-weight:normal;font-stretch:normal;font-size:medium;line-height:normal;font-family:sans-serif;font-variant-ligatures:normal;font-variant-position:normal;font-variant-caps:normal;font-variant-numeric:normal;font-variant-alternates:normal;font-feature-settings:normal;text-indent:0;text-align:start;text-decoration:none;text-decoration-line:none;text-decoration-style:solid;text-decoration-color:#000000;letter-spacing:normal;word-spacing:normal;text-transform:none;writing-mode:lr-tb;direction:ltr;text-orientation:mixed;dominant-baseline:auto;baseline-shift:baseline;text-anchor:start;white-space:normal;shape-padding:0;clip-rule:nonzero;display:inline;overflow:visible;visibility:visible;opacity:1;isolation:auto;mix-blend-mode:normal;color-interpolation:sRGB;color-interpolation-filters:linearRGB;solid-color:#000000;solid-opacity:1;vector-effect:none;fill:none;fill-opacity:1;fill-rule:nonzero;stroke:#000000;stroke-width:0.12592027;stroke-linecap:round;stroke-linejoin:miter;stroke-miterlimit:4;stroke-dasharray:none;stroke-dashoffset:0;stroke-opacity:1;color-rendering:auto;image-rendering:auto;shape-rendering:auto;text-rendering:auto;enable-background:accumulate"
     d="m 22.135796,22.140766 c -2.204585,0.166925 -4.004737,1.600997 -4.004737,3.572067 0,1.97107 1.803794,3.781612 4.004737,3.572066 9.180371,-0.874038 18.430275,-0.774631 27.728408,0 2.203263,0.183555 4.004737,-1.600996 4.004737,-3.572066 0,-1.97107 -1.796769,-3.458311 -4.004737,-3.572067 -9.339033,-0.481152 -18.623485,-0.6894 -27.728408,0 z"
     id="rect880"
     inkscape:connector-curvature="0"
     sodipodi:nodetypes="sssssss"
     inkscape:label="skin" />
  <path
     style="display:inline;fill:#000000;fill-opacity:1;stroke:#000000;stroke-width:0.0147697;stroke-linecap:round;stroke-miterlimit:4;stroke-dasharray:none;stroke-opacity:1"
     d="m 26.15638,25.632917 c 0,1.444838 -1.115983,2.616113 -2.492614,2.616113 -1.376632,0 -2.492616,-1.171275 -2.492616,-2.616113 0,-1.444842 1.115984,-2.616117 2.492616,-2.616117 1.371988,0 2.492614,1.171275 2.492614,2.616117 z"
     id="path838-2"
     inkscape:connector-curvature="0"
     sodipodi:nodetypes="sssss"
     inkscape:label="leye" />
  <path
     style="display:inline;fill:#000000;fill-opacity:1;stroke:#000000;stroke-width:0.0147697;stroke-linecap:round;stroke-miterlimit:4;stroke-dasharray:none;stroke-opacity:1"
     d="m 50.421195,25.551927 c 0,1.444838 -1.115983,2.616113 -2.492614,2.616113 -1.376632,0 -2.492616,-1.171275 -2.492616,-2.616113 0,-1.444842 1.115984,-2.616117 2.492616,-2.616117 1.371988,0 2.492614,1.171275 2.492614,2.616117 z"
     id="path838-2-6"
     inkscape:connector-curvature="0"
     sodipodi:nodetypes="sssss"
     inkscape:label="reye" />
  <path
     style="display:inline;fill:#ffffff;fill-opacity:1;stroke:none;stroke-width:0.00888716;stroke-linecap:round;stroke-miterlimit:4;stroke-dasharray:none;stroke-opacity:1"
     d="m 25.136698,25.618365 c 0,0.869297 -0.671574,1.574 -1.5,1.574 -0.828426,0 -1.5,-0.704703 -1.5,-1.574 0,-0.869297 0.671574,-1.574 1.5,-1.574 0.825632,0 1.5,0.704703 1.5,1.574 z"
     id="path838-2-4"
     inkscape:connector-curvature="0"
     sodipodi:nodetypes="sssss"
     inkscape:label="lpupil" />
  <path
     style="display:inline;fill:#ffffff;fill-opacity:1;stroke:none;stroke-width:0.00888716;stroke-linecap:round;stroke-miterlimit:4;stroke-dasharray:none;stroke-opacity:1"
     d="m 49.401513,25.537375 c 0,0.869297 -0.671574,1.574 -1.5,1.574 -0.828426,0 -1.5,-0.704703 -1.5,-1.574 0,-0.869297 0.671574,-1.574 1.5,-1.574 0.825632,0 1.5,0.704703 1.5,1.574 z"
     id="path838-2-4-4"
     inkscape:connector-curvature="0"
     sodipodi:nodetypes="sssss"
     inkscape:label="rpupil" />
  <path
     style="fill:none;stroke:#000000;stroke-width:0.13333333;stroke-linecap:butt;stroke-linejoin:miter;stroke-miterlimit:4;stroke-dasharray:none;stroke-opacity:1"
     d="M 21.606102,34.715499 C 19.61235,48.647699 6.9195353,57.825684 6.125,64.372881 h 13.755532 c 5.416191,-10.782774 13.301254,-29.451072 1.72557,-29.657382 z"
     id="path839"
     inkscape:connector-curvature="0"
     sodipodi:nodetypes="cccc"
     inkscape:label="lhand" />
  <path
     style="fill:none;stroke:#000000;stroke-width:0.13333333;stroke-linecap:butt;stroke-linejoin:miter;stroke-miterlimit:4;stroke-dasharray:none;stroke-opacity:1"
     d="M 50.318898,34.641278 C 52.31265,48.573479 65.005465,57.751464 65.8,64.298661 H 52.044468 C 46.628277,53.515887 38.743214,34.847588 50.318898,34.641278 Z"
     id="path839-4"
     inkscape:connector-curvature="0"
     sodipodi:nodetypes="cccc"
     inkscape:label="rhand" />
</svg>
